<?xml version="1.0" standalone="no"?>
<!DOCTYPE svg PUBLIC "-//W3C//DTD SVG 20010904//EN"
 "http://www.w3.org/TR/2001/REC-SVG-20010904/DTD/svg10.dtd">
<svg version="1.0" xmlns="http://www.w3.org/2000/svg"
 width="17.000000pt" height="28.000000pt" viewBox="0 0 17.000000 28.000000"
 preserveAspectRatio="xMidYMid meet">

<g transform="translate(0.000000,28.000000) scale(0.100000,-0.100000)"
fill="#000000" stroke="none">
<path d="M80 160 c-3 -69 -3 -134 -1 -144 10 -49 16 25 11 144 l-6 125 -4
-125z"/>
<path d="M15 98 c11 -6 29 -18 40 -27 14 -11 12 -7 -4 12 -14 15 -32 27 -40
27 -12 -1 -11 -3 4 -12z"/>
<path d="M119 83 c-16 -19 -18 -23 -4 -12 11 9 29 21 40 27 15 9 16 11 4 12
-8 0 -26 -12 -40 -27z"/>
</g>
</svg>
