<?xml version="1.0" standalone="no"?>
<!DOCTYPE svg PUBLIC "-//W3C//DTD SVG 20010904//EN"
 "http://www.w3.org/TR/2001/REC-SVG-20010904/DTD/svg10.dtd">
<svg version="1.0" xmlns="http://www.w3.org/2000/svg"
 width="80" height="80" viewBox="0 0 1920.000000 1164.000000"
 preserveAspectRatio="xMidYMid meet">

<g transform="translate(0.000000,1164.000000) scale(0.100000,-0.100000)"
fill="#3b7d7d" stroke="none">
<path d="M9415 11514 c-299 -22 -483 -51 -681 -108 -806 -232 -1389 -840
-1719 -1794 -3 -9 -41 19 -102 77 -193 178 -335 278 -538 381 -632 320 -1391
271 -1991 -129 -592 -395 -921 -1131 -828 -1853 56 -431 241 -809 581 -1185
l74 -81 -343 -4 c-340 -4 -344 -4 -433 -32 -223 -68 -382 -199 -475 -391 -47
-98 -68 -175 -80 -302 -13 -136 -13 -5069 0 -5188 22 -199 90 -345 220 -476
75 -75 100 -93 191 -137 112 -54 185 -75 319 -92 115 -14 8326 -14 8425 0 117
17 226 49 315 93 67 33 103 59 171 127 72 71 94 100 133 180 94 193 106 294
106 905 0 256 2 465 5 465 30 0 1594 -896 2072 -1187 290 -176 428 -242 613
-293 126 -34 248 -50 397 -50 241 0 370 26 421 85 61 68 57 -115 57 2965 l0
2825 -23 59 c-37 98 -78 154 -120 165 -69 17 -369 34 -518 28 -176 -6 -246
-22 -417 -96 -142 -61 -257 -125 -525 -290 -112 -69 -598 -354 -1080 -632
l-877 -506 -8 201 c-4 110 -5 347 -2 526 7 357 2 407 -51 549 -49 133 -164
282 -276 359 -70 48 -165 92 -247 115 -72 20 -102 21 -598 25 l-523 3 141 137
c431 417 689 849 818 1372 55 225 71 341 78 570 6 221 -9 393 -53 588 -102
456 -374 953 -714 1306 -392 407 -884 642 -1475 705 -105 12 -367 20 -440 15z
m323 -455 c209 -22 397 -71 594 -153 477 -199 859 -560 1089 -1031 430 -880
207 -1921 -546 -2553 -828 -695 -2029 -655 -2814 93 -341 325 -565 762 -636
1240 -20 133 -23 411 -6 545 124 964 872 1727 1816 1853 133 18 370 21 503 6z
m-3948 -1264 c285 -62 533 -193 733 -384 232 -222 370 -472 438 -791 32 -150
33 -429 1 -576 -68 -315 -194 -548 -421 -775 -223 -222 -441 -342 -756 -415
-115 -27 -463 -27 -584 0 -609 133 -1061 593 -1183 1201 -32 156 -31 413 1
565 64 303 195 545 410 760 230 230 495 367 821 426 103 18 437 12 540 -11z
m1928 -2670 l260 -280 -575 -3 c-317 -1 -578 0 -580 2 -4 3 452 650 485 689
14 16 20 12 82 -55 37 -40 184 -199 328 -353z m4252 -764 c124 -10 165 -27
228 -95 48 -52 74 -105 91 -184 16 -75 16 -5047 0 -5141 -23 -136 -95 -230
-201 -265 -29 -9 -89 -21 -133 -27 -51 -6 -1575 -8 -4200 -7 -3725 3 -4125 5
-4170 19 -126 40 -191 99 -228 209 l-22 65 -3 2245 c-2 2386 3 2912 32 2992
23 62 85 131 144 160 l47 23 2135 5 c3733 9 6172 9 6280 1z m3874 -257 c15 -6
16 -246 16 -2621 0 -2485 -1 -2614 -17 -2609 -10 3 -85 19 -166 36 -81 17
-171 40 -199 51 -53 21 -511 280 -1356 768 -284 164 -683 393 -887 510 -393
225 -439 258 -463 338 -9 30 -12 272 -12 944 0 859 1 906 19 944 10 22 34 54
52 72 19 17 203 127 409 244 846 479 1897 1084 1996 1149 199 132 329 179 496
179 53 1 103 -2 112 -5z"/>
<path d="M10989 5815 c-252 -50 -434 -227 -495 -480 -27 -111 -24 -264 5 -354
90 -273 389 -477 670 -457 314 23 555 255 609 585 13 77 14 107 4 175 -22 150
-115 304 -244 401 -163 124 -354 169 -549 130z m211 -497 c66 -34 93 -79 88
-150 -5 -71 -39 -119 -102 -143 -106 -41 -216 35 -216 148 0 128 117 202 230
145z"/>
<path d="M5670 5120 c-764 -5 -776 -5 -821 -26 -51 -24 -90 -69 -110 -129 -20
-59 -21 -2848 -1 -2915 17 -54 74 -113 127 -131 33 -11 409 -14 2110 -17 1440
-2 2091 1 2140 8 131 20 184 72 205 201 13 86 14 2707 0 2804 -15 98 -46 147
-117 182 l-58 28 -1350 0 c-742 0 -1699 -2 -2125 -5z m3190 -1605 l0 -1135
-1835 0 -1835 0 0 1135 0 1135 1835 0 1835 0 0 -1135z"/>
</g>
</svg>
