<?xml version="1.0" standalone="no"?>
<!DOCTYPE svg PUBLIC "-//W3C//DTD SVG 20010904//EN"
 "http://www.w3.org/TR/2001/REC-SVG-20010904/DTD/svg10.dtd">
<svg version="1.0" xmlns="http://www.w3.org/2000/svg"
 width="70" height="70" viewBox="0 0 512.000000 512.000000"
 preserveAspectRatio="xMidYMid meet">

<g transform="translate(0.000000,512.000000) scale(0.100000,-0.100000)"
fill="#3b7d7d" stroke="#3b7d7d">
<path stroke-width="6" stroke-linecap="round" d="M1143 4535 c-103 -32 -194 -113 -241 -213 -23 -49 -27 -70 -27 -152
0 -81 4 -103 26 -150 14 -31 40 -72 58 -92 l32 -36 -56 -26 c-77 -35 -156
-113 -189 -185 -25 -56 -257 -974 -271 -1073 -7 -43 -10 -48 -34 -48 -73 0
-146 -49 -170 -113 -15 -38 -15 -656 0 -694 15 -42 68 -92 109 -103 19 -5 70
-10 113 -10 l77 0 0 -408 c0 -453 2 -474 63 -554 21 -27 56 -55 97 -76 59 -31
71 -33 135 -30 114 6 192 56 247 161 23 41 23 48 26 475 l3 432 142 0 c188 1
239 22 273 117 19 55 19 631 0 686 -30 82 -91 116 -208 117 -47 0 -78 4 -78
10 0 21 53 225 61 234 4 5 19 -13 32 -40 14 -27 38 -61 54 -76 50 -48 671
-396 717 -403 205 -31 342 244 192 385 -15 14 -151 97 -304 185 l-277 160
-162 364 c-90 201 -174 377 -188 391 -31 32 -31 36 -2 44 40 10 118 68 157
118 133 168 101 418 -70 543 -92 68 -233 93 -337 60z m188 -95 c81 -23 162
-101 188 -183 19 -56 15 -150 -7 -201 -24 -54 -84 -115 -137 -141 -24 -11 -69
-21 -111 -23 -93 -5 -157 21 -218 89 -104 116 -101 275 8 384 76 76 176 103
277 75z m-128 -656 c25 -9 65 -32 88 -53 37 -33 59 -76 208 -411 l167 -375
289 -166 c158 -91 298 -178 311 -193 65 -75 -15 -217 -113 -202 -35 5 -636
346 -669 379 -12 12 -86 146 -164 299 -145 283 -158 301 -200 278 -38 -21 -33
-42 54 -211 l86 -167 -56 -228 c-61 -252 -80 -303 -127 -352 l-32 -33 -5 -778
-5 -777 -28 -43 c-71 -107 -234 -106 -305 2 l-27 41 -5 787 -5 787 -22 24
c-12 13 -31 43 -42 68 -42 96 -42 94 94 645 86 349 134 523 150 552 32 53 96
108 149 127 55 19 152 20 209 0z m-698 -1361 c9 -20 27 -51 40 -69 l25 -33 0
-290 0 -291 -79 0 c-64 0 -83 4 -105 21 l-26 20 0 319 0 319 26 20 c17 13 41
21 65 21 35 0 40 -3 54 -37z m936 18 l24 -19 0 -322 0 -322 -24 -19 c-20 -17
-40 -19 -162 -19 l-139 0 0 279 0 278 31 39 c18 22 40 58 51 82 l19 42 88 0
c73 0 93 -4 112 -19z"/>
<path stroke-width="3" d="M3464 4500 c-171 -34 -304 -198 -304 -375 0 -176 136 -345 299 -371
23 -4 41 -9 41 -12 0 -3 -11 -28 -25 -56 -14 -29 -30 -81 -36 -116 -9 -51 -38
-118 -136 -311 l-126 -245 -271 -155 c-149 -85 -286 -167 -305 -184 -83 -72
-94 -202 -26 -295 56 -76 151 -113 230 -91 53 14 670 368 705 404 16 16 39 49
52 73 12 24 25 44 28 44 3 0 15 -39 27 -87 l21 -87 -33 -38 c-53 -58 -56 -86
-53 -431 3 -306 3 -313 26 -349 31 -50 77 -76 145 -84 l57 -7 0 -452 c0 -500
2 -516 63 -597 21 -27 56 -55 97 -76 59 -31 71 -33 135 -30 114 6 192 56 247
161 23 42 23 46 26 519 l3 476 192 4 c205 4 226 8 274 60 40 43 43 67 43 402
0 314 -1 323 -22 366 -15 30 -37 53 -63 67 -36 21 -54 23 -187 23 l-146 0
-122 493 c-67 270 -132 515 -146 543 -47 99 -171 193 -276 210 -21 4 -38 8
-38 11 0 2 12 27 27 56 25 47 28 62 28 157 0 93 -3 112 -27 162 -77 164 -248
252 -424 218z m204 -124 c98 -49 152 -139 152 -251 0 -149 -101 -260 -253
-281 -100 -14 -216 49 -271 146 -28 49 -31 64 -31 135 0 71 3 86 31 135 77
135 236 185 372 116z m272 -597 c54 -24 115 -81 141 -131 19 -38 319 -1222
319 -1261 0 -40 -36 -84 -83 -102 -59 -22 -120 -8 -146 37 -11 16 -74 249
-140 517 -67 267 -126 503 -132 523 -16 62 -81 77 -95 22 -4 -16 26 -152 80
-369 47 -190 86 -349 86 -355 0 -7 -41 -10 -117 -8 l-117 3 -68 270 c-37 149
-67 273 -68 277 -1 18 -43 30 -66 19 -31 -14 -31 -39 -2 -160 l22 -93 -49 -95
c-28 -51 -59 -102 -70 -113 -11 -10 -159 -98 -330 -196 -265 -153 -316 -179
-352 -179 -98 0 -161 134 -95 204 15 16 151 100 302 186 151 86 281 162 287
168 7 7 73 129 146 272 108 210 135 271 140 316 4 31 14 73 22 93 23 55 93
126 150 152 66 31 170 33 235 3z m69 -1266 c5 -21 19 -76 31 -123 12 -47 32
-102 45 -122 28 -42 92 -83 146 -92 88 -15 200 38 238 113 30 58 35 107 17
184 -9 38 -16 70 -16 73 0 2 56 4 125 4 180 0 165 32 165 -354 0 -294 -1 -315
-19 -337 l-19 -24 -489 -3 c-323 -2 -500 0 -524 7 -58 17 -60 30 -57 368 3
280 4 302 22 322 18 20 29 21 172 21 l153 0 10 -37z m239 -1251 l-3 -468 -28
-43 c-74 -112 -254 -103 -313 16 -18 35 -19 69 -22 501 l-3 462 186 0 186 0
-3 -468z"/>
<path stroke-width="4" d="M2321 2110 c-210 -55 -375 -188 -467 -375 -76 -156 -97 -287 -70
-443 29 -166 102 -300 228 -417 85 -78 212 -146 323 -170 115 -26 283 -17 394
20 305 103 505 399 488 720 -10 191 -77 337 -217 476 -144 143 -305 209 -510
208 -61 0 -122 -7 -169 -19z m339 -101 c204 -56 371 -219 436 -426 24 -76 29
-216 10 -302 -47 -222 -234 -419 -452 -475 -78 -20 -231 -21 -309 -1 -208 53
-388 226 -449 433 -84 285 61 603 332 733 131 62 294 77 432 38z"/>
<path stroke-width="3" d="M2595 1470 l-210 -210 -100 100 c-55 55 -107 100 -117 100 -23 0 -48
-27 -48 -54 0 -28 238 -266 266 -266 12 0 110 91 252 233 188 188 232 237 232
259 0 27 -23 48 -51 48 -7 0 -108 -94 -224 -210z"/>
</g>
</svg>
