<?xml version="1.0" standalone="no"?>
<!DOCTYPE svg PUBLIC "-//W3C//DTD SVG 20010904//EN"
 "http://www.w3.org/TR/2001/REC-SVG-20010904/DTD/svg10.dtd">
<svg version="1.0" xmlns="http://www.w3.org/2000/svg"
 width="20" height="20" viewBox="0 0 512.000000 512.000000"
 preserveAspectRatio="xMidYMid meet">

<g transform="translate(0.000000,512.000000) scale(0.100000,-0.100000)"
fill="#000000" stroke="none">
<path d="M935 5111 c-11 -5 -29 -19 -40 -31 -20 -22 -20 -36 -20 -2086 l0
-2064 28 -27 27 -28 2065 0 2065 0 27 28 28 27 3 227 c3 241 -1 269 -44 297
-21 14 -218 16 -1811 18 l-1788 3 -2 1785 c-2 1388 -5 1790 -15 1808 -25 47
-51 52 -285 51 -120 0 -227 -4 -238 -8z"/>
<path d="M65 4241 c-11 -5 -29 -19 -40 -31 -19 -20 -20 -39 -23 -243 -2 -122
0 -232 3 -245 3 -13 18 -35 32 -48 l26 -24 338 0 339 0 0 300 0 300 -327 -1
c-181 0 -337 -4 -348 -8z"/>
<path d="M1610 3950 l0 -300 1018 -2 1017 -3 3 -1017 2 -1018 300 0 300 0 -2
1290 -3 1290 -28 27 -27 28 -1290 3 -1290 2 0 -300z"/>
<path d="M3650 401 l0 -338 24 -26 c13 -14 35 -29 48 -32 13 -3 124 -5 246 -3
l222 3 27 28 28 27 3 340 3 340 -301 0 -300 0 0 -339z"/>
</g>
</svg>
