<?xml version="1.0" standalone="no"?>
<!DOCTYPE svg PUBLIC "-//W3C//DTD SVG 20010904//EN"
 "http://www.w3.org/TR/2001/REC-SVG-20010904/DTD/svg10.dtd">
<svg version="1.0" xmlns="http://www.w3.org/2000/svg"
 width="70" height="70" viewBox="0 0 200.000000 200.000000"
 preserveAspectRatio="xMidYMid meet">

<g transform="translate(0.000000,200.000000) scale(0.100000,-0.100000)"
fill="#3b7d7d" stroke="none">
<path d="M906 1685 c-138 -49 -209 -223 -146 -358 41 -86 149 -157 240 -157
53 0 127 30 172 70 61 53 89 115 90 197 1 185 -180 311 -356 248z m207 -81
c53 -37 87 -101 87 -167 0 -174 -211 -265 -337 -146 -45 43 -63 85 -63 146 1
62 29 123 72 156 50 39 77 47 141 44 44 -3 67 -10 100 -33z"/>
<path d="M131 1314 c-12 -15 -21 -33 -21 -40 0 -8 -16 -16 -41 -20 -73 -12
-89 -51 -40 -98 27 -26 29 -33 24 -77 -9 -76 22 -98 85 -62 29 17 32 17 67 0
19 -9 42 -17 50 -17 25 0 43 38 38 83 -4 36 -1 46 21 66 16 15 26 35 26 53 0
29 -15 40 -72 52 -19 5 -34 19 -48 46 -25 49 -58 54 -89 14z m57 -88 c6 -14
22 -26 43 -30 l32 -6 -23 -25 c-17 -18 -21 -31 -17 -55 7 -34 7 -34 -28 -18
-19 8 -31 8 -50 0 -24 -11 -25 -10 -25 20 0 19 -9 41 -21 54 l-21 23 36 6 c27
6 38 13 42 31 8 30 18 30 32 0z"/>
<path d="M1780 1300 c-14 -27 -29 -41 -48 -46 -57 -12 -72 -23 -72 -52 0 -18
10 -38 26 -53 22 -20 25 -30 21 -66 -5 -45 13 -83 38 -83 8 0 31 8 50 17 35
17 38 17 67 0 63 -36 94 -14 85 62 -5 44 -3 51 24 77 49 47 33 86 -40 98 -25
4 -41 12 -41 20 0 25 -41 66 -66 66 -18 0 -29 -10 -44 -40z m64 -74 c4 -18 15
-25 42 -31 l36 -6 -21 -23 c-12 -13 -21 -35 -21 -54 0 -30 -1 -31 -25 -20 -19
8 -31 8 -50 0 -35 -16 -35 -16 -28 18 4 24 0 37 -17 55 l-23 25 32 6 c21 4 37
16 43 30 14 30 24 30 32 0z"/>
<path d="M692 1173 c-49 -25 -152 -121 -152 -140 0 -4 8 -18 18 -31 l18 -24
29 41 c33 49 132 118 181 127 40 7 41 10 12 35 -31 25 -45 24 -106 -8z"/>
<path d="M1198 1177 l-27 -22 42 -13 c59 -18 137 -74 177 -127 l33 -45 17 28
c22 34 16 46 -54 109 -47 44 -131 94 -153 93 -5 -1 -20 -11 -35 -23z"/>
<path d="M428 983 c-9 -10 -23 -32 -31 -49 -13 -25 -24 -32 -57 -37 -22 -3
-47 -11 -55 -17 -25 -20 -17 -58 16 -87 29 -26 31 -32 25 -77 -9 -83 22 -106
99 -69 33 16 37 16 70 0 76 -36 112 -15 100 59 -6 42 -4 49 23 78 33 34 46 65
34 82 -12 19 -49 34 -81 34 -26 0 -34 7 -52 43 -31 61 -61 74 -91 40z m52
-103 c10 -24 20 -31 51 -36 22 -4 39 -10 39 -14 0 -3 -11 -17 -25 -30 -21 -20
-24 -29 -19 -62 l7 -39 -37 17 c-34 17 -38 17 -72 1 l-36 -18 7 41 c6 36 4 43
-19 61 -34 27 -33 39 3 39 32 0 56 18 66 50 9 28 21 25 35 -10z"/>
<path d="M1514 992 c-6 -4 -21 -26 -33 -49 -18 -36 -26 -43 -52 -43 -32 0 -69
-15 -81 -34 -12 -17 1 -48 34 -82 27 -29 29 -36 23 -78 -12 -74 24 -95 100
-59 33 16 37 16 70 0 77 -37 108 -14 99 69 -5 45 -3 51 25 78 53 51 37 93 -39
103 -33 5 -44 12 -57 37 -30 60 -59 79 -89 58z m41 -102 c10 -32 34 -50 66
-50 36 0 37 -14 3 -36 -23 -16 -25 -22 -19 -61 l6 -43 -35 17 c-34 16 -38 16
-72 -1 l-37 -17 7 39 c5 33 2 42 -19 62 -14 13 -25 27 -25 30 0 4 17 10 39 14
31 5 41 12 51 36 14 35 26 38 35 10z"/>
<path d="M957 853 c-8 -10 -26 -43 -40 -74 l-25 -56 -58 -8 c-130 -16 -148
-60 -62 -151 l51 -55 -11 -72 c-10 -65 -10 -74 7 -97 26 -36 44 -36 116 4 l64
35 70 -37 c56 -30 74 -35 88 -26 33 20 40 48 30 123 l-10 71 52 54 c85 91 66
135 -63 151 l-58 8 -26 56 c-32 72 -49 91 -82 91 -15 0 -34 -8 -43 -17z m77
-118 c30 -69 32 -70 119 -81 31 -3 57 -9 57 -12 0 -4 -23 -30 -51 -58 l-51
-52 11 -64 c16 -95 18 -93 -54 -53 l-65 36 -65 -36 c-72 -40 -70 -42 -54 53
l11 64 -51 52 c-28 28 -51 54 -51 58 0 3 26 9 58 12 86 11 88 12 118 81 16 36
31 65 34 65 3 0 18 -29 34 -65z"/>
<path d="M440 562 c0 -17 10 -37 23 -50 22 -20 33 -22 157 -22 l134 0 -29 30
c-28 29 -32 30 -120 30 -78 0 -93 3 -108 20 -26 31 -57 26 -57 -8z"/>
<path d="M1503 570 c-15 -17 -30 -20 -113 -21 -93 0 -95 -1 -118 -30 l-24 -29
134 0 c128 0 136 1 156 23 29 31 30 77 2 77 -11 0 -28 -9 -37 -20z"/>
</g>
</svg>
