<?xml version="1.0" standalone="no"?>
<!DOCTYPE svg PUBLIC "-//W3C//DTD SVG 20010904//EN"
 "http://www.w3.org/TR/2001/REC-SVG-20010904/DTD/svg10.dtd">
<svg version="1.0" xmlns="http://www.w3.org/2000/svg"
 width="70" height="70" viewBox="0 0 512.000000 512.000000"
 preserveAspectRatio="xMidYMid meet">

<g transform="translate(0.000000,512.000000) scale(0.100000,-0.100000)"
fill="#3b7d7d" stroke="none">
<path d="M3243 5096 l-28 -24 0 -217 0 -217 29 -25 c23 -19 36 -24 60 -19 63
12 66 25 66 263 0 214 0 214 -25 238 -31 32 -66 32 -102 1z"/>
<path d="M2043 4605 c-33 -14 -43 -32 -43 -78 0 -27 20 -52 148 -179 137 -138
150 -148 185 -148 49 0 77 28 77 77 0 34 -11 48 -142 179 -78 79 -153 147
-168 152 -18 7 -36 6 -57 -3z"/>
<path d="M4494 4612 c-11 -1 -89 -72 -172 -156 -164 -164 -172 -178 -131 -230
15 -20 29 -26 58 -26 34 0 47 10 189 153 128 130 152 158 152 183 0 46 -48 84
-96 76z"/>
<path d="M3224 4249 c-122 -9 -228 -39 -359 -104 -181 -88 -323 -219 -429
-394 l-37 -61 -575 -2 -574 -3 -410 -410 -410 -411 0 -479 0 -480 -64 -57
c-85 -76 -156 -171 -156 -209 0 -19 12 -42 34 -66 l34 -38 -28 -55 c-15 -30
-36 -81 -46 -112 -17 -57 -18 -58 -56 -58 -46 0 -93 -22 -103 -47 -16 -43 -24
-197 -15 -290 13 -119 28 -141 102 -145 l50 -3 32 -85 c18 -47 39 -98 48 -115
16 -29 15 -30 -18 -67 -56 -62 -47 -91 72 -225 44 -48 135 -124 169 -138 35
-15 67 -6 107 32 l27 26 78 -35 c43 -20 95 -41 116 -47 35 -12 37 -14 37 -58
0 -36 6 -50 28 -73 25 -25 38 -29 117 -35 48 -4 129 -5 178 -1 129 10 156 28
157 108 0 45 1 47 38 58 20 7 72 28 114 47 l77 36 36 -32 c41 -36 86 -41 125
-14 14 9 52 40 86 69 l61 53 649 3 c514 3 657 7 686 17 60 23 129 82 162 141
l31 55 3 343 3 342 56 0 c80 0 128 18 182 66 58 52 94 120 152 281 43 120 45
123 74 123 39 1 101 23 127 47 76 68 119 225 98 359 -14 90 -43 153 -89 198
l-38 37 92 138 c218 327 293 541 282 801 -10 210 -74 393 -195 556 -217 292
-544 439 -918 413z m194 -159 c297 -38 548 -217 677 -484 60 -124 76 -189 82
-336 4 -104 2 -139 -15 -210 -40 -167 -132 -344 -305 -590 l-77 -110 -120 0
-120 0 0 259 0 258 103 5 c122 5 192 32 256 98 86 89 106 238 45 349 -54 101
-147 155 -264 155 -91 0 -154 -27 -217 -92 -61 -62 -83 -129 -83 -252 l0 -100
-84 0 -84 0 -4 108 c-5 127 -27 187 -91 250 -62 60 -127 87 -213 86 -266 0
-398 -321 -210 -509 63 -64 120 -85 244 -92 l92 -6 0 -258 0 -259 -85 0 -84 0
-39 53 c-169 229 -292 447 -338 602 -36 120 -38 306 -5 430 93 348 378 598
736 645 88 11 112 11 203 0z m-1088 -574 c0 -8 -7 -45 -16 -83 -9 -39 -17
-117 -18 -185 l-1 -118 -288 0 c-293 0 -316 -3 -344 -39 -18 -24 -15 -66 6
-92 l19 -24 322 -5 322 -5 29 -79 c15 -43 51 -121 80 -174 47 -89 195 -319
224 -350 10 -11 5 -22 -30 -56 -65 -66 -89 -136 -89 -271 -1 -86 3 -122 19
-163 36 -99 122 -171 202 -172 30 0 33 -4 58 -72 15 -40 41 -107 56 -149 68
-177 151 -248 297 -249 l63 0 -3 -329 -3 -330 -29 -30 c-17 -17 -46 -36 -65
-41 -22 -6 -261 -10 -603 -10 -541 0 -568 1 -568 18 0 10 -16 33 -34 51 l-35
34 26 51 c15 28 36 80 48 116 l22 65 54 5 c30 3 60 9 66 13 25 16 37 93 37
232 -1 198 -20 235 -124 235 -35 0 -38 2 -44 33 -3 19 -24 70 -45 113 l-38 80
33 37 c47 50 45 81 -10 153 -78 105 -217 224 -262 224 -13 0 -41 -15 -63 -35
l-38 -35 -74 34 c-41 19 -93 40 -116 47 -43 12 -43 12 -43 59 0 91 -40 109
-240 109 -200 0 -240 -18 -240 -109 0 -47 0 -47 -42 -59 -24 -7 -76 -28 -117
-47 -56 -26 -77 -31 -87 -23 -11 9 -14 92 -14 440 l0 428 278 3 c265 3 279 4
319 26 66 35 110 79 140 140 l28 57 3 273 3 272 485 0 c414 0 484 -2 484 -14z
m-1151 -526 c-36 -64 -60 -70 -280 -70 l-194 0 245 245 245 245 3 -191 c2
-180 1 -193 -19 -229z m1809 312 c46 -34 62 -78 62 -176 l0 -86 -82 0 c-107 0
-158 23 -187 84 -25 51 -26 64 -5 116 33 82 139 113 212 62z m768 3 c63 -41
83 -134 41 -196 -34 -52 -78 -69 -174 -69 l-83 0 0 94 c0 80 3 98 23 127 44
66 130 86 193 44z m-376 -685 l0 -260 -95 0 -95 0 0 260 0 260 95 0 95 0 0
-260z m535 -465 c41 -84 16 -277 -38 -290 -12 -3 -271 -4 -576 -3 l-555 3 -20
34 c-25 43 -34 171 -16 227 26 80 -26 74 614 72 l571 -3 20 -40z m-2745 -224
c0 -59 30 -87 117 -111 85 -23 167 -58 220 -94 52 -35 89 -34 130 6 l33 32 37
-30 c20 -17 46 -42 56 -56 l20 -27 -27 -31 c-43 -52 -42 -66 17 -182 30 -58
62 -137 71 -176 21 -85 44 -109 106 -114 l45 -3 3 -77 3 -78 -31 0 c-17 0 -46
-6 -64 -14 -32 -13 -36 -21 -66 -118 -17 -56 -51 -138 -76 -180 -24 -43 -44
-87 -44 -98 0 -11 16 -37 35 -58 l34 -38 -58 -58 -57 -57 -20 22 c-10 12 -34
28 -52 36 -37 15 -24 19 -152 -50 -36 -20 -105 -47 -155 -62 -49 -14 -96 -32
-104 -40 -8 -7 -16 -36 -19 -64 l-5 -51 -78 0 -79 0 0 45 c0 63 -26 87 -118
109 -61 15 -126 44 -254 112 -23 13 -31 13 -60 1 -18 -8 -42 -24 -52 -36 l-20
-22 -53 53 c-29 29 -53 56 -53 61 0 5 13 25 30 44 16 18 30 43 30 54 0 11 -17
51 -39 87 -40 70 -83 181 -95 244 -8 47 -38 68 -92 68 -49 0 -54 8 -54 85 0
78 5 85 56 85 50 0 80 22 90 67 17 78 59 188 94 246 22 36 40 77 40 91 0 14
-14 41 -31 60 l-31 36 23 27 c13 16 38 41 56 57 l33 28 35 -31 c20 -17 47 -31
61 -31 14 0 56 18 92 40 37 21 105 51 152 66 130 40 137 44 149 70 6 14 11 40
11 59 l0 35 80 0 80 0 0 -39z m2452 -352 c-30 -81 -56 -133 -77 -155 l-32 -34
-196 0 -195 0 -34 38 c-23 25 -47 73 -73 142 -21 58 -40 111 -42 118 -4 9 69
12 345 12 l350 0 -46 -121z"/>
<path d="M1544 3390 c-28 -11 -54 -49 -54 -78 0 -12 11 -34 25 -47 24 -25 24
-25 238 -25 238 0 251 3 263 66 5 24 0 37 -19 60 l-25 29 -204 2 c-111 1 -213
-2 -224 -7z"/>
<path d="M875 2595 c-43 -42 -28 -103 29 -125 18 -6 238 -10 632 -10 511 0
609 2 633 15 46 24 55 74 20 119 l-20 26 -635 0 -635 0 -24 -25z"/>
<path d="M1546 2279 c-20 -16 -26 -29 -26 -59 0 -30 6 -43 26 -59 26 -20 38
-21 321 -21 l294 0 24 25 c16 15 25 36 25 55 0 19 -9 40 -25 55 l-24 25 -294
0 c-283 0 -295 -1 -321 -21z"/>
<path d="M2285 1205 c-32 -31 -32 -66 -1 -102 l24 -28 301 0 c297 0 301 0 323
22 31 31 30 89 -1 114 -22 18 -45 19 -323 19 l-299 0 -24 -25z"/>
<path d="M2285 855 c-27 -26 -31 -51 -14 -88 20 -44 43 -47 345 -47 l286 0 29
29 c32 32 35 47 18 84 -20 44 -43 47 -350 47 l-290 0 -24 -25z"/>
<path d="M932 1660 c-109 -29 -187 -75 -273 -160 -124 -124 -180 -258 -180
-433 1 -172 58 -313 176 -433 112 -113 279 -184 435 -184 155 0 322 71 435
184 121 122 178 261 178 436 0 161 -53 296 -164 414 -121 129 -247 186 -424
192 -88 3 -125 0 -183 -16z m300 -161 c67 -22 148 -71 190 -116 50 -52 97
-143 114 -222 52 -234 -96 -474 -331 -536 -365 -95 -685 283 -531 628 51 114
150 204 271 246 82 28 204 28 287 0z"/>
<path d="M4615 3388 c-53 -28 -62 -93 -19 -127 25 -20 39 -21 236 -21 117 0
217 4 228 10 48 26 43 110 -10 137 -32 16 -405 18 -435 1z"/>
</g>
</svg>
