<?xml version="1.0" standalone="no"?>
<!DOCTYPE svg PUBLIC "-//W3C//DTD SVG 20010904//EN"
 "http://www.w3.org/TR/2001/REC-SVG-20010904/DTD/svg10.dtd">
<svg version="1.0" xmlns="http://www.w3.org/2000/svg"
 width="512.000000pt" height="512.000000pt" viewBox="0 0 512.000000 512.000000"
 preserveAspectRatio="xMidYMid meet">

<g transform="translate(0.000000,512.000000) scale(0.100000,-0.100000)"
fill="#3b7d7d" stroke="none">
<path d="M2620 4687 c-19 -12 -43 -38 -54 -57 -20 -33 -21 -54 -24 -317 l-3
-283 -798 0 c-760 0 -799 -1 -814 -18 -24 -27 -22 -85 4 -108 20 -18 50 -19
814 -22 l793 -2 4 -313 c3 -305 4 -313 26 -349 13 -21 40 -45 66 -57 42 -21
54 -21 814 -21 l772 0 0 -183 c0 -171 1 -185 20 -205 14 -14 33 -22 55 -22 22
0 41 8 55 22 19 20 20 34 20 205 l0 183 98 0 c114 0 165 19 203 71 l24 34 3
665 c3 746 5 727 -66 775 l-37 25 -621 0 c-589 0 -622 -1 -637 -18 -24 -27
-22 -85 4 -108 20 -18 47 -19 615 -22 l594 -3 0 -439 c0 -242 -2 -440 -4 -440
-3 0 -55 65 -116 145 -61 79 -120 151 -133 160 -26 18 -73 19 -104 2 -12 -7
-106 -122 -208 -256 -181 -235 -188 -243 -205 -225 -10 11 -140 178 -290 373
-149 195 -280 361 -291 369 -24 17 -78 18 -107 3 -10 -6 -98 -113 -193 -237
-96 -125 -179 -235 -186 -243 -10 -13 -12 68 -13 386 l0 401 184 4 c164 3 186
5 205 22 27 25 29 86 3 109 -16 15 -47 17 -229 17 -201 0 -211 -1 -243 -23z
m821 -989 c161 -211 297 -389 302 -395 7 -10 -97 -13 -517 -13 l-526 0 0 109
0 109 186 243 c199 260 253 329 259 329 1 0 135 -172 296 -382z m963 -84 l146
-192 0 -66 0 -66 -304 0 -304 0 -26 35 -27 35 177 231 c97 127 180 227 184
222 4 -4 73 -94 154 -199z"/>
<path d="M3682 4454 c-196 -98 -204 -380 -15 -491 36 -21 63 -27 124 -31 70
-4 85 -2 133 22 212 104 212 402 1 502 -72 34 -172 33 -243 -2z m213 -159 c60
-61 47 -163 -26 -201 -87 -44 -189 15 -189 111 0 74 53 124 132 125 41 0 52
-5 83 -35z"/>
<path d="M91 4013 c-18 -9 -45 -34 -60 -57 l-26 -40 -3 -1440 c-1 -793 0
-1456 3 -1474 7 -40 59 -101 102 -118 27 -12 315 -14 1657 -14 l1624 0 26 -44
c44 -76 173 -203 269 -267 160 -105 312 -149 515 -149 245 0 456 85 631 254
128 124 217 273 263 441 31 115 31 345 0 460 -88 322 -338 575 -657 665 l-60
17 -5 111 c-6 129 -17 152 -75 152 -61 0 -75 -27 -75 -147 l0 -103 -63 0
c-168 0 -375 -73 -522 -183 -108 -81 -214 -207 -274 -325 l-21 -42 -1595 0
-1595 0 2 1083 3 1082 246 5 c225 5 249 7 268 24 27 25 29 86 3 109 -16 15
-51 17 -283 17 -225 0 -269 -3 -298 -17z m4285 -1923 c367 -94 615 -429 591
-801 -21 -325 -229 -591 -547 -699 -101 -34 -298 -40 -410 -11 -318 80 -543
329 -590 650 -58 394 212 781 604 866 96 21 259 19 352 -5z m-1090 -547 c-3
-10 -7 -35 -10 -55 -4 -21 -8 -54 -11 -73 l-6 -35 -973 0 c-970 0 -973 0
-1000 -21 -36 -28 -36 -80 0 -108 27 -21 30 -21 1003 -21 l976 0 18 -82 c9
-46 20 -93 23 -106 l6 -22 -1578 2 -1579 3 -3 268 -2 267 1571 0 c1491 0 1570
-1 1565 -17z"/>
<path d="M4140 1840 c-13 -13 -20 -33 -20 -59 0 -39 0 -39 -47 -46 -127 -19
-203 -110 -203 -241 1 -90 54 -168 140 -207 36 -16 73 -21 178 -25 156 -5 172
-14 172 -88 0 -34 -5 -47 -26 -63 -25 -19 -40 -21 -201 -21 -173 0 -174 0
-200 -26 -20 -20 -24 -31 -19 -57 10 -53 37 -67 127 -67 l79 0 0 -48 c0 -57
23 -85 71 -85 42 0 70 31 76 85 l5 44 57 12 c76 16 123 50 155 114 33 66 35
152 5 218 -46 102 -89 122 -278 130 -141 7 -145 7 -168 34 -28 33 -30 85 -4
117 19 23 24 24 198 27 165 3 180 5 201 24 30 29 29 72 -3 103 -21 22 -33 25
-93 25 l-69 0 -6 41 c-3 22 -13 49 -23 60 -23 25 -78 25 -104 -1z"/>
<path d="M3595 1385 c-14 -13 -25 -36 -25 -50 0 -33 42 -75 75 -75 33 0 75 42
75 75 0 33 -42 75 -75 75 -14 0 -37 -11 -50 -25z"/>
<path d="M4695 1385 c-14 -13 -25 -36 -25 -50 0 -33 42 -75 75 -75 33 0 75 42
75 75 0 33 -42 75 -75 75 -14 0 -37 -11 -50 -25z"/>
<path d="M290 1350 c-11 -11 -20 -33 -20 -50 0 -67 88 -96 129 -44 26 34 26
54 0 88 -26 33 -79 36 -109 6z"/>
<path d="M600 1350 c-45 -45 -11 -120 54 -120 37 0 76 36 76 70 0 10 -9 29
-21 44 -26 33 -79 36 -109 6z"/>
<path d="M910 1350 c-45 -45 -11 -120 54 -120 37 0 76 36 76 70 0 10 -9 29
-21 44 -26 33 -79 36 -109 6z"/>
<path d="M1673 3392 c-12 -2 -34 -17 -48 -33 l-25 -31 0 -594 c0 -389 4 -602
10 -615 13 -23 61 -49 92 -49 13 0 246 132 518 293 528 312 540 321 525 386
-3 16 -17 40 -30 53 -30 30 -955 577 -992 586 -15 4 -38 6 -50 4z m480 -423
c216 -128 393 -233 395 -234 1 -1 -168 -103 -375 -225 -208 -123 -388 -230
-400 -238 l-23 -14 0 471 c0 259 3 471 6 471 3 0 182 -104 397 -231z"/>
</g>
</svg>
