<?xml version="1.0" standalone="no"?>
<!DOCTYPE svg PUBLIC "-//W3C//DTD SVG 20010904//EN"
 "http://www.w3.org/TR/2001/REC-SVG-20010904/DTD/svg10.dtd">
<svg version="1.0" xmlns="http://www.w3.org/2000/svg"
 width="512.000000pt" height="512.000000pt" viewBox="0 0 512.000000 512.000000"
 preserveAspectRatio="xMidYMid meet">

<g transform="translate(0.000000,512.000000) scale(0.100000,-0.100000)"
fill="#3b7d7d" stroke="none">
<path d="M3330 5098 c-70 -36 -84 -70 -90 -217 l-5 -123 -55 -22 -55 -23 -86
83 c-100 95 -140 113 -211 93 -36 -9 -70 -38 -197 -162 -156 -155 -181 -189
-181 -252 0 -53 23 -91 108 -177 l75 -77 -25 -58 -25 -58 -129 -5 c-113 -4
-133 -8 -160 -27 -50 -36 -64 -77 -64 -192 l0 -100 -432 -3 -433 -3 -33 -23
c-72 -52 -67 31 -70 -1133 l-2 -1047 -298 -4 c-343 -6 -387 -13 -545 -95 -72
-37 -110 -66 -178 -133 -170 -169 -251 -373 -236 -601 7 -116 29 -196 85 -309
39 -81 60 -109 142 -190 102 -102 170 -148 278 -187 112 -42 200 -52 430 -53
l213 0 24 25 c32 31 32 69 0 100 -24 25 -24 25 -237 25 -251 0 -315 11 -438
71 -66 33 -102 59 -160 118 -343 344 -198 907 270 1053 l75 23 1875 0 1875 0
75 -23 c273 -85 460 -331 460 -607 0 -232 -143 -462 -350 -564 -153 -75 -54
-71 -1701 -71 l-1476 0 -21 -23 c-31 -33 -29 -80 4 -106 l27 -21 1471 0 c1583
1 1543 -1 1688 53 185 68 355 227 438 411 82 180 91 390 25 579 -62 178 -207
345 -372 430 -169 87 -188 90 -660 95 l-413 4 0 148 c0 160 -7 191 -47 209
-34 16 -47 14 -77 -10 l-26 -20 0 -165 0 -164 -1035 0 -1035 0 0 1030 0 1030
350 0 350 0 0 -281 0 -281 34 -34 c51 -51 100 -48 213 13 l86 46 92 -46 c118
-60 161 -63 211 -13 l34 34 0 281 0 281 350 0 350 0 0 -725 c0 -712 0 -725 20
-745 27 -27 81 -26 106 1 16 17 20 40 22 130 l4 109 81 0 c99 0 155 23 189 78
20 32 24 54 28 161 l5 123 55 22 55 23 86 -83 c100 -95 140 -113 212 -93 35 9
69 38 196 162 156 155 181 189 181 252 0 53 -23 91 -108 177 l-75 77 25 58 25
58 129 5 c145 6 177 18 208 84 24 50 24 462 0 512 -31 66 -63 78 -208 84
l-129 5 -25 58 -25 58 75 77 c85 86 108 124 108 177 0 63 -25 97 -181 252
-127 124 -161 153 -196 162 -72 20 -112 2 -212 -93 l-86 -83 -55 23 -55 22 -5
123 c-6 146 -22 184 -94 218 -39 19 -60 21 -252 21 -198 0 -212 -1 -254 -22z
m450 -258 c3 -69 10 -134 17 -145 22 -39 61 -66 147 -101 83 -34 91 -35 134
-24 38 9 63 28 135 98 l88 86 135 -135 c74 -73 134 -138 134 -144 0 -6 -34
-44 -76 -85 -41 -41 -82 -87 -90 -102 -22 -42 -17 -97 17 -178 55 -133 86
-152 252 -158 l117 -4 0 -188 0 -188 -117 -4 c-166 -6 -197 -25 -252 -158 -32
-78 -39 -136 -20 -173 6 -12 47 -59 90 -103 44 -45 79 -86 79 -90 0 -5 -60
-70 -134 -143 l-135 -135 -88 86 c-72 70 -97 89 -135 98 -43 11 -51 10 -134
-24 -86 -35 -125 -62 -147 -101 -7 -11 -14 -76 -17 -145 l-5 -125 -72 -3 -73
-3 0 253 0 253 75 12 c237 38 448 210 536 437 131 341 -17 722 -344 888 -185
93 -439 93 -624 0 -125 -64 -234 -168 -306 -292 -35 -62 -74 -183 -83 -257
l-7 -63 -248 0 -249 0 0 84 0 84 118 4 c167 6 198 26 251 161 51 129 42 164
-73 277 -42 41 -76 79 -76 85 0 6 60 70 133 143 l133 133 88 -85 c72 -70 96
-86 135 -96 45 -10 54 -9 130 20 148 57 171 92 171 258 0 60 3 112 7 116 4 3
90 5 192 4 l186 -3 5 -125z m-5 -561 c232 -86 382 -320 362 -563 -15 -170
-111 -330 -254 -422 -55 -36 -185 -84 -227 -84 l-26 0 0 218 c0 244 -8 278
-71 323 -33 24 -39 24 -281 27 l-248 3 0 22 c0 13 7 50 15 82 59 229 251 401
475 424 87 8 182 -2 255 -30z m-1145 -879 c0 -126 -2 -230 -5 -230 -3 0 -37
16 -75 35 -40 20 -84 35 -105 35 -21 0 -65 -15 -105 -35 -38 -19 -72 -35 -75
-35 -3 0 -5 104 -5 230 l0 230 185 0 185 0 0 -230z"/>
<path d="M2020 2332 c-64 -31 -71 -61 -68 -274 3 -171 5 -189 24 -215 39 -53
39 -53 469 -53 437 0 432 0 472 59 22 32 23 43 23 215 0 206 -8 238 -70 268
-32 16 -74 18 -425 18 -351 0 -393 -2 -425 -18z m770 -262 l0 -130 -345 0
-345 0 0 130 0 130 345 0 345 0 0 -130z"/>
<path d="M893 1126 c-130 -42 -233 -169 -249 -306 -13 -113 48 -253 139 -320
70 -52 141 -72 232 -68 143 6 247 76 308 206 28 58 32 77 31 147 0 65 -5 91
-28 142 -34 74 -112 153 -183 185 -60 26 -190 34 -250 14z m192 -155 c89 -40
140 -147 116 -239 -14 -50 -67 -113 -115 -136 -41 -20 -125 -21 -169 -3 -65
28 -127 121 -127 192 0 107 100 205 210 205 25 0 63 -9 85 -19z"/>
<path d="M1923 1121 c-226 -84 -310 -354 -171 -546 72 -99 177 -149 303 -143
143 6 247 76 308 206 27 58 32 78 31 147 0 66 -5 91 -28 142 -34 74 -112 153
-183 185 -69 30 -191 35 -260 9z m202 -150 c52 -24 91 -66 110 -120 27 -77 13
-141 -43 -203 -45 -50 -85 -68 -152 -68 -67 0 -107 18 -152 68 -73 81 -76 189
-5 269 61 69 161 92 242 54z"/>
<path d="M2963 1121 c-226 -84 -310 -354 -171 -546 114 -157 336 -192 500 -79
129 90 180 284 114 431 -34 74 -112 153 -183 185 -69 30 -191 35 -260 9z m202
-150 c70 -31 125 -113 125 -186 0 -71 -62 -164 -127 -192 -41 -17 -125 -17
-166 0 -65 28 -127 121 -127 193 0 37 30 108 58 138 59 63 159 83 237 47z"/>
<path d="M4003 1121 c-94 -35 -167 -103 -209 -196 -23 -49 -28 -75 -28 -140
-1 -69 3 -89 31 -147 60 -128 166 -199 305 -206 88 -5 150 12 222 59 136 90
190 285 122 436 -34 74 -112 153 -183 185 -69 30 -191 35 -260 9z m202 -150
c70 -31 125 -113 125 -186 0 -71 -62 -164 -127 -192 -41 -17 -125 -17 -166 0
-65 28 -127 121 -127 193 0 37 30 108 58 138 59 63 159 83 237 47z"/>
</g>
</svg>
